HIERARCHY
ROOT pelvis
{
  OFFSET 0 100 0
  CHANNELS 6 Xposition Yposition Zposition Zrotation Xrotation Yrotation
  JOINT pelvis_right_femur
  {
    OFFSET -10.78128 -3.44521 -0.5502486
    CHANNELS 3 Zrotation Xrotation Yrotation
    JOINT right_femur_tibia
    {
      OFFSET -0.8047443 -44.0398 -0.1307829
      CHANNELS 3 Zrotation Xrotation Yrotation
      JOINT right_tibia_foot
      {
        OFFSET 3.006224 -47.83518 -5
        CHANNELS 3 Zrotation Xrotation Yrotation
        End Site
        {
          OFFSET 0 -5 15
        }
      }
    }
  }
  JOINT pelvis_left_femur
  {
    OFFSET 10.78128 -3.44521 -0.5502486
    CHANNELS 3 Zrotation Xrotation Yrotation
    JOINT left_femur_tibia
    {
      OFFSET 0.8047443 -44.0398 -0.1307829
      CHANNELS 3 Zrotation Xrotation Yrotation
      JOINT left_tibia_foot
      {
        OFFSET -4.370144 -48.10324 -4.275266
        CHANNELS 3 Zrotation Xrotation Yrotation
        End Site
        {
          OFFSET 0 -5 15
        }
      }
    }
  }
  JOINT pelvis_spine1
  {
    OFFSET 0 6.468898 -3.129235
    CHANNELS 3 Zrotation Xrotation Yrotation
    JOINT spine1
    {
      OFFSET 0 23.15396 4.99043
      CHANNELS 3 Zrotation Xrotation Yrotation
      JOINT spine2
      {
        OFFSET 0 20.79997 -5.064912
        CHANNELS 3 Zrotation Xrotation Yrotation
        JOINT neck
        {
          OFFSET 0 14.38658 9.616178
          CHANNELS 3 Zrotation Xrotation Yrotation
          End Site
          {
            OFFSET 0 20 0
          }
        }
      }
      JOINT right_manubrium
      {
        OFFSET -5.722621 16.35077 3.967754
        CHANNELS 3 Zrotation Xrotation Yrotation
        JOINT right_clavicle
        {
          OFFSET -13.16364 1.694482 -4.693211
          CHANNELS 3 Zrotation Xrotation Yrotation
          JOINT right_humerus
          {
            OFFSET -28.5034 -0.3100689 -2.792744
            CHANNELS 3 Zrotation Xrotation Yrotation
            JOINT right_radius
            {
              OFFSET -25.15693 0.02248979 -1.271978
              CHANNELS 3 Zrotation Xrotation Yrotation
              End Site
              {
                OFFSET -15 0 0
              }
            }
          }
        }
      }
      JOINT left_manubrium
      {
        OFFSET 5.722621 16.35077 3.967754
        CHANNELS 3 Zrotation Xrotation Yrotation
        JOINT left_clavicle
        {
          OFFSET 13.16364 1.694482 -4.693211
          CHANNELS 3 Zrotation Xrotation Yrotation
          JOINT left_humerus
          {
            OFFSET 29.39168 -1.063119 -2.237045
            CHANNELS 3 Zrotation Xrotation Yrotation
            JOINT left_radius
            {
              OFFSET 24.59957 -0.9528479 0.9047498
              CHANNELS 3 Zrotation Xrotation Yrotation
              End Site
              {
                OFFSET 15 -0 -0
              }
            }
          }
        }
      }
    }
  }
}
MOTION
Frames: 15
Frame Time: 0.0416666666667
876.3223 96.6087 2979.792 3.709555 -3.825394 29.28136 -0.379366 -25.61582 0.08499537 -0 12.69441 -0 -2.972499 -2.578001 -8.938946 -5.401899 15.96658 -6.618225 -0 12.84074 -0 -3.340702 -21.20639 12.55434 -3.207985 0.3867828 2.334874 2.24409 9.696123 -9.073017 1.70606 22.27387 5.793189 1.506659 -18.48896 7.746745 0.4165183 -15.29274 10.34903 92.42089 23.93717 -23.25777 -0 0 6.967749 -20.73525 11.30314 10.72978 5.721192 -23.78779 -5.502552 -80.23895 22.88248 3.349769 0 0 -29.07536 2.339481 7.593119 10.9949
879.2378 94.96069 2985.432 3.651449 -3.014439 29.80254 -0.1906478 -26.15473 0.3835039 -0 8.013972 -0 -3.071959 -1.993983 -9.349571 -5.407342 17.55481 -6.259157 -0 13.85833 -0 -3.454732 -21.25723 12.44129 -3.395147 -0.1284239 2.350955 2.464066 9.576999 -9.287365 1.690589 21.88032 5.654463 1.651487 -18.74438 7.426012 0.5545388 -14.88343 10.42642 92.72422 24.08913 -24.38596 -0 0 5.709919 -20.11763 11.19516 10.28313 6.016441 -24.3169 -5.362875 -79.6405 22.17178 2.313724 0 0 -30.64728 2.758732 7.123602 10.27878
882.2991 93.50043 2991.551 3.382522 -2.703426 30.35223 0.8808593 -26.52225 1.31844 -0 7.62676 -0 -2.978121 -1.326001 -9.93564 -5.054597 19.2613 -6.326891 -0 16.59617 -0 -4.326384 -20.52577 12.34447 -3.156019 -0.4649503 2.115857 2.451762 9.25592 -9.200703 1.803949 21.59462 5.401355 1.800452 -18.67903 7.120943 0.9590464 -14.15276 10.38886 92.65171 24.33219 -24.80507 -0 0 4.876168 -18.84633 11.06146 9.339836 6.289438 -24.17381 -5.002939 -79.47734 22.07977 1.766932 0 0 -30.99223 2.995348 6.979667 9.880061
885.4381 92.65222 2998.087 2.714356 -3.050438 30.7526 2.984101 -26.36543 2.753983 -0 11.03462 -0 -3.015929 -0.8665699 -10.38837 -4.191325 20.52496 -6.938359 -0 22.81988 -0 -6.051444 -18.37028 12.15235 -2.246618 -0.5149933 1.645551 2.3331 8.888342 -8.923368 2.00067 21.49561 5.11402 1.966952 -18.53081 6.87131 1.752059 -13.26408 10.33518 92.09655 24.97741 -24.47542 -0 0 4.534071 -17.33288 11.2172 8.256963 6.222911 -23.27919 -4.600265 -80.01824 22.85179 2.202681 0 0 -29.62252 2.76179 7.581741 10.27743
888.5602 92.68432 3004.752 1.941835 -3.829574 30.75043 5.160281 -24.39445 4.029451 -0 15.33138 -0 -3.239612 -0.9847733 -10.24481 -3.218106 19.77598 -7.614649 -0 32.45884 -0 -7.838769 -14.743 11.98792 -0.9804735 -0.387412 1.441495 2.292891 8.912061 -8.660933 2.088363 21.56348 4.963059 2.125264 -18.61662 6.667472 2.767754 -12.86068 10.48244 91.20075 25.99093 -23.70388 -0 0 4.820073 -16.63124 11.86199 7.848478 5.561296 -22.08512 -4.453185 -81.35892 23.98572 4.125939 0 0 -26.9859 1.906272 8.535314 11.71333
891.5931 93.50011 3011.264 1.686813 -4.778085 30.28613 6.333752 -20.43038 4.701551 -0 18.17092 -0 -3.466271 -2.067027 -9.640132 -2.659658 16.82141 -7.843014 -0 43.03583 -0 -8.981575 -10.88113 12.14606 -0.05959657 -0.1825592 1.819248 2.271268 9.271701 -8.338787 2.11909 21.88836 4.872453 2.192319 -18.5739 6.537515 3.54232 -12.96776 10.75336 90.29818 26.82517 -22.75696 -0 0 5.469809 -16.82938 12.60839 7.995874 4.613916 -21.10142 -4.51101 -82.94674 24.84536 6.55082 0 0 -24.32685 0.9142597 9.247144 13.31906
894.4829 94.85635 3017.462 2.027976 -5.675083 29.45179 6.580216 -15.14978 5.019845 -0 19.31835 -0 -3.73271 -3.801837 -8.846986 -2.496678 12.02289 -7.568058 -0 52.76107 -0 -9.440628 -7.751359 12.71757 0.2659857 0.1380675 2.730018 2.174608 9.701804 -7.828338 2.176895 22.40277 4.709542 2.234033 -18.24272 6.365753 3.990375 -13.38943 11.0454 89.29715 27.31357 -21.4954 -0 0 6.424487 -17.27358 12.92434 8.260923 3.732564 -20.38031 -4.56472 -84.56742 25.36532 8.956396 0 0 -21.9983 0.08538038 9.489048 14.56554
897.1946 96.41952 3023.282 2.756742 -6.28948 28.43483 6.233485 -9.325152 5.183491 -0 18.93359 -0 -4.061413 -5.806731 -7.961386 -2.495027 5.619303 -6.933158 -0 59.87314 -0 -9.336929 -5.926901 13.62876 0.01136695 0.6294412 4.001059 1.952442 9.993405 -7.085226 2.247552 22.94613 4.480431 2.352356 -17.7487 6.068707 4.178222 -14.04162 11.31377 87.96382 27.59032 -19.67198 -0 0 7.849641 -17.53487 12.57185 8.4717 3.19296 -19.82232 -4.455138 -86.23869 25.62847 11.30338 0 0 -19.93563 -0.4417478 9.237341 15.23472
899.7469 97.79387 3028.763 3.649944 -6.650817 27.4354 5.601415 -3.596494 5.23811 -0 17.45861 -0 -4.248129 -7.94495 -7.124066 -2.361 -1.606604 -6.132761 -0 62.42323 -0 -8.786213 -5.562797 14.94232 -0.6082257 1.236333 5.308945 1.555223 10.04643 -6.124978 2.341413 23.41449 4.228409 2.486377 -17.13481 5.763613 4.018174 -14.86954 11.48195 86.3533 27.56084 -17.15295 -0 0 9.790824 -17.68892 11.72256 8.696781 3.158092 -19.27068 -4.126666 -87.81103 25.57509 13.37614 0 0 -18.02349 -0.5650743 8.67073 15.13154
902.223 98.67739 3034.006 4.34107 -6.838408 26.53475 5.030263 1.727088 5.186006 -0 15.41387 -0 -4.029159 -10.02078 -6.335743 -1.832882 -8.760047 -5.229434 -0 59.6695 -0 -7.975742 -6.097459 16.57095 -1.169781 1.76061 6.392418 1.058344 10.00116 -5.133765 2.400219 23.6461 4.053181 2.518342 -16.64878 5.587672 3.489746 -16.02607 11.57726 84.70339 27.04939 -14.17098 -0 0 12.29418 -18.21145 10.84788 9.275453 3.501778 -18.65035 -3.682389 -89.25608 25.14699 15.39424 0 0 -16.19167 -0.5062712 7.963833 14.64313
904.7321 98.95499 3039.116 4.495011 -6.753616 25.70215 4.714761 6.310635 5.036585 -0 13.33258 -0 -3.403057 -11.87122 -5.451154 -0.8568536 -15.17352 -4.200476 -0 52.6983 -0 -7.169045 -6.759565 18.0676 -1.390891 2.046139 7.172872 0.6164439 9.994505 -4.359496 2.313716 23.51017 4.077179 2.458604 -16.58544 5.543967 2.819851 -17.55728 11.67324 83.13521 26.30732 -11.22184 -0 0 15.25408 -19.28902 10.2781 10.35679 3.936217 -18.04105 -3.264729 -90.56978 24.48055 17.67045 0 0 -14.67469 -0.5509994 7.164124 14.39441
907.3594 98.65364 3044.191 4.12271 -6.39576 24.90255 4.593952 9.904667 4.83875 -0 11.85115 -0 -2.584568 -13.55308 -4.474583 0.3697694 -20.31412 -3.141972 -0 43.56579 -0 -6.540743 -7.144194 19.10856 -1.287903 2.086721 7.661061 0.293976 9.993717 -3.882675 2.096109 23.08872 4.288385 2.366839 -16.87657 5.590927 2.207906 -19.20017 11.74407 81.69142 25.67047 -8.640707 -0 0 18.28692 -20.6473 9.97681 11.69222 4.246378 -17.48543 -2.952542 -91.61465 23.80339 20.02599 0 0 -13.65418 -0.7421539 6.324845 14.56905
910.1639 97.88567 3049.331 3.513597 -5.949507 24.13149 4.451883 12.70237 4.665713 -0 11.54497 -0 -1.687421 -15.10531 -3.551143 1.480779 -23.90232 -2.318008 -0 34.22645 -0 -6.144055 -7.214002 19.69625 -1.023372 1.929954 7.936583 0.03955223 9.906397 -3.598016 1.88238 22.58587 4.543751 2.252734 -17.2213 5.713642 1.656534 -20.65421 11.68898 80.48776 25.09217 -6.510858 -0 0 21.04915 -21.92582 9.72712 12.92287 4.359384 -16.88234 -2.759977 -92.36088 23.30084 22.18697 0 0 -12.89615 -1.052146 5.532749 15.08599
913.2092 96.84391 3054.649 2.989825 -5.541047 23.40088 4.033705 15.13737 4.562629 -0 12.78136 -0 -0.6784255 -16.19408 -2.771697 2.051443 -25.99865 -2.028537 -0 26.26969 -0 -5.972097 -7.104727 19.89951 -0.8034312 1.577146 8.1634 -0.2252939 9.692381 -3.359895 1.788647 22.1534 4.711967 2.119999 -17.4404 5.892933 1.12821 -21.75849 11.44101 79.68906 24.40902 -4.8879 -0 0 23.34602 -22.91138 9.387963 13.8224 4.296235 -16.13696 -2.644812 -92.95901 23.07817 24.14997 0 0 -12.05059 -1.503619 4.858318 15.91334
916.5589 95.7961 3060.252 2.776886 -5.141023 22.75726 3.175153 17.34741 4.545658 -0 15.70942 -0 0.4186312 -16.02677 -2.175644 1.760501 -26.79597 -2.419228 -0 21.03673 -0 -5.922114 -7.037026 19.73677 -0.8509979 1.00853 8.490195 -0.5271958 9.42434 -3.113784 1.840787 21.83965 4.763994 2.01815 -17.58997 6.091157 0.7111441 -22.42577 11.05627 79.41297 23.74558 -3.946543 -0 0 24.92726 -23.60615 9.059436 14.35098 4.119948 -15.34899 -2.540265 -93.52135 23.12491 25.94524 0 0 -11.04934 -2.047482 4.390765 16.95119
